<svg xmlns="http://www.w3.org/2000/svg" width="175" height="175" viewBox="0 0 175 175">
  <g id="Group_1340" data-name="Group 1340" transform="translate(-100 -341)">
    <g id="Group_582" data-name="Group 582" transform="translate(-1.666 -1.166)">
      <path id="check-in-circle" d="M126.179,59.736a6.835,6.835,0,0,1,0,9.668L80.32,115.264a6.837,6.837,0,0,1-9.668,0L48.821,93.432a6.835,6.835,0,1,1,9.666-9.666l17,17,41.026-41.028A6.837,6.837,0,0,1,126.179,59.736ZM175,87.5A87.5,87.5,0,1,1,87.5,0,87.452,87.452,0,0,1,175,87.5Zm-13.672,0A73.828,73.828,0,1,0,87.5,161.328,73.787,73.787,0,0,0,161.328,87.5Zm0,0" transform="translate(101.666 342.166)"/>
    </g>
  </g>
</svg>
